<mxfile host="65bd71144e">
    <diagram id="xQSI3djOxjJfqGSrouA1" name="ページ1">
        <mxGraphModel dx="1918" dy="1102" grid="1" gridSize="10" guides="1" tooltips="1" connect="1" arrows="1" fold="1" page="1" pageScale="1" pageWidth="3300" pageHeight="4681" math="0" shadow="0">
            <root>
                <mxCell id="0"/>
                <mxCell id="1" parent="0"/>
                <mxCell id="35" value="&lt;span style=&quot;font-size: 18px;&quot;&gt;hobby get&lt;/span&gt;" style="html=1;verticalAlign=top;fillColor=default;" parent="1" vertex="1">
                    <mxGeometry x="70" y="120" width="1410" height="600" as="geometry"/>
                </mxCell>
                <mxCell id="34" value="&lt;font style=&quot;font-size: 18px;&quot;&gt;postの基本&lt;/font&gt;" style="html=1;verticalAlign=top;fillColor=default;" parent="1" vertex="1">
                    <mxGeometry x="80" y="1200" width="1410" height="600" as="geometry"/>
                </mxCell>
                <mxCell id="2" value="フロントのvueファイル&lt;br&gt;（プレゼンテーション層）" style="html=1;verticalAlign=top;" parent="1" vertex="1">
                    <mxGeometry x="130" y="170" width="300" height="490" as="geometry"/>
                </mxCell>
                <mxCell id="3" value="server/api&lt;br&gt;（アプリケーション層）" style="html=1;verticalAlign=top;" parent="1" vertex="1">
                    <mxGeometry x="470" y="180" width="300" height="480" as="geometry"/>
                </mxCell>
                <mxCell id="4" value="server/domain&lt;br&gt;（ドメイン層）" style="html=1;verticalAlign=top;" parent="1" vertex="1">
                    <mxGeometry x="810" y="180" width="300" height="480" as="geometry"/>
                </mxCell>
                <mxCell id="5" value="server/infrastracture DB周り&lt;br&gt;（インフラストラクチャ層）" style="html=1;verticalAlign=top;" parent="1" vertex="1">
                    <mxGeometry x="1150" y="180" width="300" height="480" as="geometry"/>
                </mxCell>
                <mxCell id="12" style="edgeStyle=none;html=1;entryX=0;entryY=0.5;entryDx=0;entryDy=0;" parent="1" source="6" target="7" edge="1">
                    <mxGeometry relative="1" as="geometry"/>
                </mxCell>
                <mxCell id="6" value="components/anime" style="html=1;" parent="1" vertex="1">
                    <mxGeometry x="200" y="270" width="150" height="70" as="geometry"/>
                </mxCell>
                <mxCell id="45" style="edgeStyle=none;html=1;entryX=0;entryY=0.5;entryDx=0;entryDy=0;fontSize=12;" parent="1" source="7" target="36" edge="1">
                    <mxGeometry relative="1" as="geometry"/>
                </mxCell>
                <mxCell id="7" value="server/api/hobby/anime" style="html=1;" parent="1" vertex="1">
                    <mxGeometry x="550" y="270" width="150" height="70" as="geometry"/>
                </mxCell>
                <mxCell id="46" style="edgeStyle=none;html=1;entryX=0;entryY=0.5;entryDx=0;entryDy=0;fontSize=12;" parent="1" source="8" target="40" edge="1">
                    <mxGeometry relative="1" as="geometry"/>
                </mxCell>
                <mxCell id="8" value="server/api/hobby/comic" style="html=1;" parent="1" vertex="1">
                    <mxGeometry x="550" y="370" width="150" height="70" as="geometry"/>
                </mxCell>
                <mxCell id="47" style="edgeStyle=none;html=1;entryX=0;entryY=0.5;entryDx=0;entryDy=0;fontSize=12;" parent="1" source="9" target="41" edge="1">
                    <mxGeometry relative="1" as="geometry"/>
                </mxCell>
                <mxCell id="9" value="server/api/hobby/novel" style="html=1;" parent="1" vertex="1">
                    <mxGeometry x="550" y="470" width="150" height="70" as="geometry"/>
                </mxCell>
                <mxCell id="13" style="edgeStyle=none;html=1;entryX=0;entryY=0.5;entryDx=0;entryDy=0;" parent="1" source="10" target="8" edge="1">
                    <mxGeometry relative="1" as="geometry"/>
                </mxCell>
                <mxCell id="10" value="components/comic" style="html=1;" parent="1" vertex="1">
                    <mxGeometry x="200" y="370" width="150" height="70" as="geometry"/>
                </mxCell>
                <mxCell id="14" style="edgeStyle=none;html=1;entryX=0;entryY=0.5;entryDx=0;entryDy=0;" parent="1" source="11" target="9" edge="1">
                    <mxGeometry relative="1" as="geometry"/>
                </mxCell>
                <mxCell id="11" value="components/novel" style="html=1;" parent="1" vertex="1">
                    <mxGeometry x="200" y="470" width="150" height="70" as="geometry"/>
                </mxCell>
                <mxCell id="15" value="フロントのvueファイル&lt;br&gt;（プレゼンテーション層）" style="html=1;verticalAlign=top;" parent="1" vertex="1">
                    <mxGeometry x="130" y="1250" width="300" height="490" as="geometry"/>
                </mxCell>
                <mxCell id="16" value="server/api&lt;br&gt;（アプリケーション層）" style="html=1;verticalAlign=top;" parent="1" vertex="1">
                    <mxGeometry x="470" y="1260" width="300" height="480" as="geometry"/>
                </mxCell>
                <mxCell id="17" value="server/api&lt;br&gt;（ドメイン層）" style="html=1;verticalAlign=top;" parent="1" vertex="1">
                    <mxGeometry x="810" y="1260" width="300" height="480" as="geometry"/>
                </mxCell>
                <mxCell id="18" value="DB周り&lt;br&gt;（インフラストラクチャ層）" style="html=1;verticalAlign=top;" parent="1" vertex="1">
                    <mxGeometry x="1150" y="1260" width="300" height="480" as="geometry"/>
                </mxCell>
                <mxCell id="19" style="edgeStyle=none;html=1;entryX=0;entryY=0.5;entryDx=0;entryDy=0;" parent="1" source="20" target="21" edge="1">
                    <mxGeometry relative="1" as="geometry"/>
                </mxCell>
                <mxCell id="20" value="pages/AddInformation.vue&lt;br&gt;など" style="html=1;" parent="1" vertex="1">
                    <mxGeometry x="200" y="1350" width="150" height="70" as="geometry"/>
                </mxCell>
                <mxCell id="29" style="edgeStyle=none;html=1;entryX=0;entryY=0.5;entryDx=0;entryDy=0;" parent="1" source="21" target="28" edge="1">
                    <mxGeometry relative="1" as="geometry"/>
                </mxCell>
                <mxCell id="21" value="server/api/contentful/PostInformation" style="html=1;" parent="1" vertex="1">
                    <mxGeometry x="505" y="1350" width="240" height="70" as="geometry"/>
                </mxCell>
                <mxCell id="24" style="edgeStyle=none;html=1;entryX=0;entryY=0.5;entryDx=0;entryDy=0;" parent="1" edge="1">
                    <mxGeometry relative="1" as="geometry">
                        <mxPoint x="550" y="925" as="targetPoint"/>
                    </mxGeometry>
                </mxCell>
                <mxCell id="26" style="edgeStyle=none;html=1;entryX=0;entryY=0.5;entryDx=0;entryDy=0;" parent="1" edge="1">
                    <mxGeometry relative="1" as="geometry">
                        <mxPoint x="350" y="1025" as="sourcePoint"/>
                    </mxGeometry>
                </mxCell>
                <mxCell id="31" style="edgeStyle=none;html=1;entryX=0;entryY=0.5;entryDx=0;entryDy=0;" parent="1" source="28" target="30" edge="1">
                    <mxGeometry relative="1" as="geometry"/>
                </mxCell>
                <mxCell id="28" value="Model&lt;br&gt;値オブジェクト" style="html=1;" parent="1" vertex="1">
                    <mxGeometry x="885" y="1350" width="150" height="70" as="geometry"/>
                </mxCell>
                <mxCell id="30" value="Model&lt;br&gt;値オブジェクト" style="html=1;" parent="1" vertex="1">
                    <mxGeometry x="1225" y="1350" width="150" height="70" as="geometry"/>
                </mxCell>
                <mxCell id="48" style="edgeStyle=none;html=1;entryX=0;entryY=0.5;entryDx=0;entryDy=0;fontSize=12;" parent="1" source="36" target="37" edge="1">
                    <mxGeometry relative="1" as="geometry"/>
                </mxCell>
                <mxCell id="36" value="server/contentsrepository/&lt;br&gt;anime" style="html=1;" parent="1" vertex="1">
                    <mxGeometry x="885" y="270" width="150" height="70" as="geometry"/>
                </mxCell>
                <mxCell id="39" style="edgeStyle=none;html=1;entryX=0;entryY=0.5;entryDx=0;entryDy=0;entryPerimeter=0;fontSize=18;" parent="1" source="37" target="38" edge="1">
                    <mxGeometry relative="1" as="geometry"/>
                </mxCell>
                <mxCell id="37" value="server/contentful/Get???&lt;br&gt;cmsとの通信" style="html=1;" parent="1" vertex="1">
                    <mxGeometry x="1225" y="370" width="150" height="70" as="geometry"/>
                </mxCell>
                <mxCell id="38" value="Content ful" style="shape=cylinder3;whiteSpace=wrap;html=1;boundedLbl=1;backgroundOutline=1;size=15;fontSize=18;fillColor=default;" parent="1" vertex="1">
                    <mxGeometry x="1530" y="345" width="140" height="120" as="geometry"/>
                </mxCell>
                <mxCell id="49" style="edgeStyle=none;html=1;entryX=0;entryY=0.5;entryDx=0;entryDy=0;fontSize=12;" parent="1" source="40" target="37" edge="1">
                    <mxGeometry relative="1" as="geometry"/>
                </mxCell>
                <mxCell id="40" value="server/contentsrepository/&lt;br&gt;comic" style="html=1;" parent="1" vertex="1">
                    <mxGeometry x="885" y="370" width="150" height="70" as="geometry"/>
                </mxCell>
                <mxCell id="50" style="edgeStyle=none;html=1;entryX=0;entryY=0.5;entryDx=0;entryDy=0;fontSize=12;" parent="1" source="41" target="37" edge="1">
                    <mxGeometry relative="1" as="geometry"/>
                </mxCell>
                <mxCell id="41" value="server/contentsrepository/&lt;br&gt;novel" style="html=1;" parent="1" vertex="1">
                    <mxGeometry x="885" y="470" width="150" height="70" as="geometry"/>
                </mxCell>
                <mxCell id="43" style="edgeStyle=none;html=1;entryX=0.75;entryY=0;entryDx=0;entryDy=0;fontSize=18;dashed=1;dashPattern=12 12;endArrow=none;endFill=0;" parent="1" source="42" target="36" edge="1">
                    <mxGeometry relative="1" as="geometry"/>
                </mxCell>
                <mxCell id="42" value="" style="shape=note;whiteSpace=wrap;html=1;backgroundOutline=1;darkOpacity=0.05;fontSize=18;fillColor=default;" parent="1" vertex="1">
                    <mxGeometry x="970" y="50" width="240" height="100" as="geometry"/>
                </mxCell>
            </root>
        </mxGraphModel>
    </diagram>
    <diagram id="jZ1gVVn10oi0GXlpdr8Y" name="ページ2">
        <mxGraphModel dx="1055" dy="606" grid="1" gridSize="10" guides="1" tooltips="1" connect="1" arrows="1" fold="1" page="1" pageScale="1" pageWidth="3300" pageHeight="4681" math="0" shadow="0">
            <root>
                <mxCell id="0"/>
                <mxCell id="1" parent="0"/>
                <mxCell id="WuR70ok3u7na5zteDEGi-1" value="server/domain&lt;br&gt;（ドメイン層）" style="html=1;verticalAlign=top;" vertex="1" parent="1">
                    <mxGeometry x="250" y="150" width="850" height="770" as="geometry"/>
                </mxCell>
                <mxCell id="WuR70ok3u7na5zteDEGi-2" value="server/infrastracture DB周り&lt;br&gt;（インフラストラクチャ層）" style="html=1;verticalAlign=top;" vertex="1" parent="1">
                    <mxGeometry x="1140" y="150" width="580" height="770" as="geometry"/>
                </mxCell>
                <mxCell id="WuR70ok3u7na5zteDEGi-3" style="edgeStyle=none;html=1;entryX=0;entryY=0.5;entryDx=0;entryDy=0;fontSize=12;exitX=1;exitY=0.5;exitDx=0;exitDy=0;" edge="1" source="WlfXExq0ihKUn-abKrNc-1" target="WuR70ok3u7na5zteDEGi-6" parent="1">
                    <mxGeometry relative="1" as="geometry">
                        <mxPoint x="1025" y="303.3018867924528" as="sourcePoint"/>
                    </mxGeometry>
                </mxCell>
                <mxCell id="WuR70ok3u7na5zteDEGi-5" style="edgeStyle=none;html=1;entryX=0;entryY=0.5;entryDx=0;entryDy=0;entryPerimeter=0;fontSize=18;" edge="1" source="WuR70ok3u7na5zteDEGi-6" parent="1">
                    <mxGeometry relative="1" as="geometry">
                        <mxPoint x="1520" y="375" as="targetPoint"/>
                    </mxGeometry>
                </mxCell>
                <mxCell id="WuR70ok3u7na5zteDEGi-6" value="server/contentful/Get???&lt;br&gt;cmsとの通信" style="html=1;" vertex="1" parent="1">
                    <mxGeometry x="1215" y="340" width="150" height="70" as="geometry"/>
                </mxCell>
                <mxCell id="HrAjWfPTMZugNCnRWcRB-1" value="&lt;font style=&quot;font-size: 12px;&quot;&gt;こんな値オブジェクトが増えるかも&lt;br&gt;・視聴日&lt;br&gt;・info投稿日　リンク&lt;br&gt;・公式HPのリンク&lt;/font&gt;" style="shape=note;whiteSpace=wrap;html=1;backgroundOutline=1;darkOpacity=0.05;fontSize=18;fillColor=default;" vertex="1" parent="1">
                    <mxGeometry x="540" y="20" width="240" height="100" as="geometry"/>
                </mxCell>
                <mxCell id="HrAjWfPTMZugNCnRWcRB-14" value="&lt;p style=&quot;margin:0px;margin-top:4px;text-align:center;&quot;&gt;Syllabary五十音&lt;/p&gt;&lt;hr size=&quot;1&quot;&gt;&lt;p style=&quot;margin:0px;margin-left:4px;&quot;&gt;&lt;span style=&quot;background-color: initial;&quot;&gt;+ name: string&amp;nbsp;&lt;/span&gt;&lt;br&gt;&lt;/p&gt;&lt;hr size=&quot;1&quot;&gt;&lt;p style=&quot;margin:0px;margin-left:4px;&quot;&gt;&amp;nbsp;+ save&lt;/p&gt;" style="verticalAlign=top;align=left;overflow=fill;fontSize=12;fontFamily=Helvetica;html=1;" vertex="1" parent="1">
                    <mxGeometry x="1210" y="550" width="160" height="90" as="geometry"/>
                </mxCell>
                <mxCell id="zquFN8W2M5XpC5l0C0fW-1" value="Content ful" style="shape=cylinder3;whiteSpace=wrap;html=1;boundedLbl=1;backgroundOutline=1;size=15;fontSize=18;fillColor=default;" vertex="1" parent="1">
                    <mxGeometry x="1830" y="400" width="140" height="120" as="geometry"/>
                </mxCell>
                <mxCell id="zquFN8W2M5XpC5l0C0fW-2" value="&lt;p style=&quot;margin:0px;margin-top:4px;text-align:center;&quot;&gt;EntryId&lt;/p&gt;&lt;hr size=&quot;1&quot;&gt;&lt;p style=&quot;margin:0px;margin-left:4px;&quot;&gt;&lt;span style=&quot;background-color: initial;&quot;&gt;+ name: string&amp;nbsp;&lt;/span&gt;&lt;br&gt;&lt;/p&gt;&lt;hr size=&quot;1&quot;&gt;&lt;p style=&quot;margin:0px;margin-left:4px;&quot;&gt;&amp;nbsp;+ save&lt;/p&gt;" style="verticalAlign=top;align=left;overflow=fill;fontSize=12;fontFamily=Helvetica;html=1;" vertex="1" parent="1">
                    <mxGeometry x="1210" y="680" width="160" height="90" as="geometry"/>
                </mxCell>
                <mxCell id="WlfXExq0ihKUn-abKrNc-1" value="アニメ 集約" style="html=1;verticalAlign=top;" vertex="1" parent="1">
                    <mxGeometry x="330" y="200" width="735" height="560" as="geometry"/>
                </mxCell>
                <mxCell id="WlfXExq0ihKUn-abKrNc-3" value="&lt;p style=&quot;margin:0px;margin-top:4px;text-align:center;&quot;&gt;&lt;b&gt;Anme　エンティティ&lt;/b&gt;&lt;/p&gt;&lt;hr size=&quot;1&quot;&gt;&lt;p style=&quot;margin:0px;margin-left:4px;&quot;&gt;+ id EntryId {id}&lt;/p&gt;&lt;p style=&quot;margin:0px;margin-left:4px;&quot;&gt;+ name: title&amp;nbsp; {id}&lt;/p&gt;&lt;hr size=&quot;1&quot;&gt;&lt;p style=&quot;margin:0px;margin-left:4px;&quot;&gt;&lt;br&gt;&lt;/p&gt;" style="verticalAlign=top;align=left;overflow=fill;fontSize=12;fontFamily=Helvetica;html=1;" vertex="1" parent="1">
                    <mxGeometry x="580" y="270" width="160" height="90" as="geometry"/>
                </mxCell>
                <mxCell id="HrAjWfPTMZugNCnRWcRB-11" value="&lt;p style=&quot;margin:0px;margin-top:4px;text-align:center;&quot;&gt;&lt;b&gt;Title 値オブジェクト&lt;/b&gt;&lt;/p&gt;&lt;hr size=&quot;1&quot;&gt;&lt;p style=&quot;margin:0px;margin-left:4px;&quot;&gt;&lt;span style=&quot;background-color: initial;&quot;&gt;+ name: string&amp;nbsp;&lt;/span&gt;&lt;br&gt;&lt;/p&gt;&lt;hr size=&quot;1&quot;&gt;&lt;p style=&quot;margin:0px;margin-left:4px;&quot;&gt;&lt;br&gt;&lt;/p&gt;" style="verticalAlign=top;align=left;overflow=fill;fontSize=12;fontFamily=Helvetica;html=1;" vertex="1" parent="1">
                    <mxGeometry x="850" y="390" width="160" height="90" as="geometry"/>
                </mxCell>
                <mxCell id="HrAjWfPTMZugNCnRWcRB-13" value="&lt;p style=&quot;margin:0px;margin-top:4px;text-align:center;&quot;&gt;&lt;i&gt;&amp;lt;&amp;lt;Interface&amp;gt;&amp;gt;&lt;/i&gt;&lt;br&gt;&lt;b&gt;AnimeRepository&lt;/b&gt;&lt;/p&gt;&lt;hr size=&quot;1&quot;&gt;&lt;p style=&quot;margin:0px;margin-left:4px;&quot;&gt;&lt;br&gt;&lt;/p&gt;&lt;hr size=&quot;1&quot;&gt;&lt;p style=&quot;margin:0px;margin-left:4px;&quot;&gt;+ save&lt;/p&gt;" style="verticalAlign=top;align=left;overflow=fill;fontSize=12;fontFamily=Helvetica;html=1;" vertex="1" parent="1">
                    <mxGeometry x="565" y="430" width="190" height="140" as="geometry"/>
                </mxCell>
                <mxCell id="HrAjWfPTMZugNCnRWcRB-8" value="&lt;p style=&quot;margin:0px;margin-top:4px;text-align:center;&quot;&gt;&lt;b&gt;EntryId 値オブジェクト&lt;/b&gt;&lt;/p&gt;&lt;hr size=&quot;1&quot;&gt;&lt;p style=&quot;margin:0px;margin-left:4px;&quot;&gt;&lt;span style=&quot;background-color: initial;&quot;&gt;+ id : string&lt;/span&gt;&lt;br&gt;&lt;/p&gt;&lt;hr size=&quot;1&quot;&gt;&lt;p style=&quot;margin:0px;margin-left:4px;&quot;&gt;&lt;br&gt;&lt;/p&gt;" style="verticalAlign=top;align=left;overflow=fill;fontSize=12;fontFamily=Helvetica;html=1;" vertex="1" parent="1">
                    <mxGeometry x="850" y="270" width="160" height="90" as="geometry"/>
                </mxCell>
                <mxCell id="HrAjWfPTMZugNCnRWcRB-2" style="edgeStyle=none;html=1;entryX=0.5;entryY=0;entryDx=0;entryDy=0;" edge="1" parent="1" source="HrAjWfPTMZugNCnRWcRB-1" target="WlfXExq0ihKUn-abKrNc-3">
                    <mxGeometry relative="1" as="geometry"/>
                </mxCell>
                <mxCell id="HrAjWfPTMZugNCnRWcRB-10" style="edgeStyle=none;html=1;entryX=0;entryY=0.5;entryDx=0;entryDy=0;fontSize=12;" edge="1" parent="1" source="WlfXExq0ihKUn-abKrNc-3" target="HrAjWfPTMZugNCnRWcRB-8">
                    <mxGeometry relative="1" as="geometry"/>
                </mxCell>
                <mxCell id="HrAjWfPTMZugNCnRWcRB-12" style="edgeStyle=none;html=1;entryX=0;entryY=0.5;entryDx=0;entryDy=0;fontSize=12;" edge="1" parent="1" source="WlfXExq0ihKUn-abKrNc-3" target="HrAjWfPTMZugNCnRWcRB-11">
                    <mxGeometry relative="1" as="geometry"/>
                </mxCell>
                <mxCell id="HrAjWfPTMZugNCnRWcRB-15" style="edgeStyle=none;html=1;entryX=1;entryY=0.5;entryDx=0;entryDy=0;fontSize=12;endArrow=block;endFill=0;dashed=1;" edge="1" parent="1" source="HrAjWfPTMZugNCnRWcRB-14" target="HrAjWfPTMZugNCnRWcRB-13">
                    <mxGeometry relative="1" as="geometry"/>
                </mxCell>
                <mxCell id="zquFN8W2M5XpC5l0C0fW-3" style="edgeStyle=none;html=1;entryX=1;entryY=0.5;entryDx=0;entryDy=0;dashed=1;fontSize=12;endArrow=block;endFill=0;" edge="1" parent="1" source="zquFN8W2M5XpC5l0C0fW-2" target="HrAjWfPTMZugNCnRWcRB-13">
                    <mxGeometry relative="1" as="geometry"/>
                </mxCell>
                <mxCell id="zquFN8W2M5XpC5l0C0fW-5" style="edgeStyle=none;html=1;entryX=0.5;entryY=1;entryDx=0;entryDy=0;dashed=1;fontSize=12;endArrow=block;endFill=0;" edge="1" parent="1" source="zquFN8W2M5XpC5l0C0fW-4" target="HrAjWfPTMZugNCnRWcRB-13">
                    <mxGeometry relative="1" as="geometry"/>
                </mxCell>
                <mxCell id="zquFN8W2M5XpC5l0C0fW-6" style="edgeStyle=none;html=1;entryX=0.5;entryY=1;entryDx=0;entryDy=0;dashed=1;fontSize=12;endArrow=block;endFill=0;" edge="1" parent="1" source="zquFN8W2M5XpC5l0C0fW-4" target="WlfXExq0ihKUn-abKrNc-3">
                    <mxGeometry relative="1" as="geometry">
                        <Array as="points">
                            <mxPoint x="820" y="490"/>
                        </Array>
                    </mxGeometry>
                </mxCell>
                <mxCell id="zquFN8W2M5XpC5l0C0fW-4" value="&lt;p style=&quot;margin:0px;margin-top:4px;text-align:center;&quot;&gt;&lt;b&gt;AnimeFactory&amp;nbsp;&lt;/b&gt;&lt;/p&gt;&lt;hr size=&quot;1&quot;&gt;&lt;p style=&quot;margin:0px;margin-left:4px;&quot;&gt;&lt;span style=&quot;background-color: initial;&quot;&gt;+ name: string&amp;nbsp;&lt;/span&gt;&lt;br&gt;&lt;/p&gt;&lt;hr size=&quot;1&quot;&gt;&lt;p style=&quot;margin:0px;margin-left:4px;&quot;&gt;&lt;br&gt;&lt;/p&gt;" style="verticalAlign=top;align=left;overflow=fill;fontSize=12;fontFamily=Helvetica;html=1;" vertex="1" parent="1">
                    <mxGeometry x="580" y="620" width="160" height="90" as="geometry"/>
                </mxCell>
            </root>
        </mxGraphModel>
    </diagram>
</mxfile>